<svg id="svg" version="1.1" xmlns="http://www.w3.org/2000/svg" xmlns:xlink="http://www.w3.org/1999/xlink" width="400" height="400" viewBox="0, 0, 400,400"><g id="svgg"><path id="path0" d="M292.344 82.010 C 288.789 83.665,285.861 87.859,283.144 95.185 C 282.578 96.713,281.533 99.380,280.822 101.111 C 275.961 112.961,275.417 114.839,275.210 120.485 C 275.196 120.853,275.041 121.066,274.865 120.957 C 274.689 120.848,274.438 121.630,274.309 122.694 C 274.179 123.759,273.002 128.237,271.693 132.646 C 267.905 145.410,266.541 152.578,265.408 165.683 C 265.111 169.114,264.802 171.988,264.720 172.070 C 264.095 172.695,262.999 153.909,262.903 140.926 C 262.850 133.862,262.739 131.263,262.577 133.333 C 262.438 135.106,262.396 133.488,262.479 129.630 C 262.667 120.948,263.249 112.955,263.736 112.368 C 265.072 110.759,264.343 102.860,262.665 100.765 C 256.777 93.414,251.740 95.628,251.346 105.741 C 251.234 108.606,251.008 109.864,250.348 111.296 C 249.417 113.318,248.567 137.148,249.033 148.182 C 249.175 151.563,249.106 152.968,248.781 153.292 C 248.035 154.038,247.971 166.065,248.689 170.741 C 249.017 172.880,249.373 177.213,249.479 180.370 C 249.585 183.528,249.851 186.861,250.069 187.778 C 250.695 190.411,250.749 191.122,251.089 201.111 C 251.429 211.139,251.576 212.274,254.255 225.556 C 255.180 230.139,256.267 235.857,256.670 238.261 C 258.833 251.140,266.514 253.457,274.344 243.594 C 274.545 243.341,274.412 242.079,274.005 240.384 C 272.917 235.859,271.905 228.065,271.478 220.926 C 271.259 217.259,270.920 212.731,270.725 210.863 C 270.329 207.067,270.309 201.853,270.681 199.124 L 270.926 197.322 274.074 196.421 C 281.173 194.388,290.999 184.512,297.043 173.335 C 297.870 171.806,299.626 169.316,300.946 167.800 C 311.370 155.832,318.521 127.082,316.335 105.926 C 315.881 101.533,315.265 98.563,315.182 100.370 C 315.168 100.676,314.671 99.438,314.078 97.620 C 313.485 95.802,313.100 94.151,313.224 93.952 C 313.358 93.734,313.252 93.710,312.957 93.892 C 312.598 94.114,312.532 94.025,312.711 93.559 C 313.076 92.608,311.311 89.428,309.129 87.106 C 304.179 81.836,297.241 79.730,292.344 82.010 M295.631 98.499 C 301.027 102.743,301.865 123.538,297.380 141.903 C 296.251 146.528,296.116 147.354,296.692 146.111 C 297.447 144.483,296.526 148.104,295.091 152.407 C 291.157 164.203,285.424 174.803,278.464 183.148 C 275.418 186.800,273.409 188.704,275.728 185.741 C 277.022 184.087,276.868 184.186,274.286 186.667 L 271.395 189.444 271.641 184.444 C 271.776 181.694,272.212 175.997,272.609 171.784 C 273.006 167.571,273.314 163.237,273.294 162.154 C 273.154 154.729,284.876 111.896,289.518 102.873 C 291.936 98.173,293.654 96.943,295.631 98.499 M208.704 114.468 C 190.734 115.822,175.476 130.626,170.005 152.016 C 169.270 154.892,168.965 160.621,169.630 159.074 C 169.837 158.592,169.957 159.643,169.974 162.083 C 169.988 164.146,170.085 166.396,170.190 167.083 L 170.380 168.333 169.848 167.037 L 169.316 165.741 169.287 167.302 C 169.164 174.125,177.698 187.174,189.718 198.544 C 201.151 209.358,217.807 226.055,217.628 226.522 C 217.535 226.765,218.029 227.484,218.726 228.118 C 226.980 235.629,223.819 255.704,212.593 267.074 C 196.949 282.917,183.991 268.925,186.084 238.451 C 187.120 223.369,177.456 231.717,173.932 248.948 C 171.254 262.042,175.343 276.424,183.145 281.353 C 185.193 282.647,185.195 282.726,183.223 284.616 C 180.545 287.181,179.417 287.544,173.333 287.795 C 170.380 287.917,168.199 288.046,168.488 288.083 C 168.776 288.119,168.927 288.234,168.822 288.339 C 168.543 288.617,164.433 287.287,160.185 285.543 C 156.628 284.083,140.590 278.148,140.201 278.148 C 139.999 278.148,125.534 270.643,119.537 267.426 C 115.860 265.454,114.567 265.059,117.593 266.832 C 120.030 268.261,119.632 268.427,117.130 267.026 C 114.885 265.769,106.833 260.507,104.174 258.560 L 102.606 257.413 105.439 253.799 C 111.856 245.613,117.947 235.206,120.563 227.957 C 121.297 225.923,122.713 222.426,123.709 220.185 C 124.706 217.944,126.632 213.611,127.991 210.556 C 132.317 200.828,132.622 200.031,133.145 197.057 C 133.427 195.452,134.909 190.294,136.438 185.593 C 141.715 169.370,142.302 164.638,139.721 159.144 C 136.253 151.761,124.830 145.711,126.304 152.037 C 128.326 160.717,123.635 181.434,114.647 203.519 C 113.072 207.389,110.950 212.789,109.933 215.519 C 107.035 223.292,97.470 243.440,95.687 245.525 C 95.318 245.957,95.189 244.704,94.853 237.393 C 94.611 232.143,94.283 228.753,93.887 227.407 C 93.470 225.989,93.185 222.728,92.950 216.667 C 92.764 211.880,92.445 204.880,92.242 201.111 C 92.039 197.343,91.868 192.353,91.862 190.024 C 91.854 186.852,91.654 185.084,91.063 182.987 C 90.356 180.473,90.318 179.900,90.696 177.407 C 91.858 169.730,90.549 167.962,83.704 167.964 C 75.420 167.966,75.591 167.220,77.035 197.037 C 78.104 219.110,81.580 259.001,83.134 267.037 C 83.983 271.425,84.216 273.329,85.200 283.889 C 87.547 309.106,89.829 315.575,97.778 319.550 C 105.205 323.264,107.810 321.428,105.551 314.074 C 104.619 311.041,101.426 292.497,100.193 282.963 C 99.679 278.991,98.750 273.263,98.129 270.235 C 96.809 263.803,96.799 263.835,99.364 266.026 C 100.450 266.954,101.912 268.033,102.614 268.423 C 103.328 268.821,103.940 269.480,104.005 269.922 C 104.268 271.702,124.378 286.067,130.463 288.822 C 132.570 289.776,134.106 290.888,132.426 290.244 C 131.443 289.866,132.216 290.898,133.812 292.093 C 136.098 293.804,141.851 296.762,146.296 298.511 C 148.435 299.353,150.935 300.461,151.852 300.974 C 153.903 302.122,157.070 302.982,158.178 302.692 C 158.692 302.558,158.916 302.619,158.771 302.854 C 158.463 303.353,166.805 305.755,171.350 306.475 C 179.436 307.757,187.775 299.917,191.239 287.778 L 192.137 284.630 195.791 284.394 C 210.432 283.448,227.125 272.194,235.272 257.778 C 237.282 254.222,237.804 250.094,235.835 253.333 C 234.509 255.515,234.545 255.295,236.266 250.715 C 243.107 232.508,237.490 217.932,218.454 204.491 C 215.536 202.431,212.565 200.269,211.852 199.688 C 210.183 198.326,201.718 189.232,203.018 190.198 C 203.557 190.598,206.640 192.978,209.870 195.486 C 216.271 200.458,216.003 200.144,207.288 192.463 C 185.863 173.581,181.775 158.176,193.188 139.328 C 194.090 137.837,194.716 136.437,194.579 136.215 C 194.440 135.989,194.500 135.917,194.716 136.050 C 195.213 136.357,196.066 135.341,195.745 134.822 C 195.611 134.604,195.655 134.472,195.844 134.528 C 196.033 134.584,196.978 133.755,197.943 132.685 C 200.132 130.260,199.793 130.112,197.521 132.500 C 195.959 134.142,195.975 134.106,197.760 131.962 C 205.665 122.466,214.299 118.977,218.256 123.679 C 220.799 126.701,221.421 136.358,219.687 145.915 C 218.770 150.970,218.332 152.124,218.597 148.783 C 218.690 147.605,218.625 146.782,218.452 146.956 C 217.948 147.459,217.120 152.105,216.852 155.926 C 216.716 157.861,216.368 160.388,216.079 161.540 C 215.233 164.909,216.550 165.888,219.249 163.896 C 225.198 159.507,234.382 129.563,231.722 123.229 C 231.101 121.752,226.449 117.319,224.446 116.297 C 221.128 114.604,215.530 113.954,208.704 114.468 M215.612 122.785 C 216.548 123.294,218.148 125.972,218.148 127.031 C 218.148 127.306,218.244 127.435,218.360 127.319 C 219.176 126.503,216.509 122.204,215.208 122.237 C 214.857 122.246,215.016 122.462,215.612 122.785 M289.334 164.638 C 288.891 165.550,288.606 166.296,288.701 166.296 C 288.952 166.296,290.448 163.288,290.281 163.120 C 290.203 163.043,289.777 163.726,289.334 164.638 M255.366 211.706 C 255.864 217.796,256.359 224.028,256.466 225.556 L 256.662 228.333 255.936 225.370 C 254.418 219.175,253.085 199.258,254.268 200.441 C 254.375 200.548,254.869 205.617,255.366 211.706 M260.062 240.274 C 260.168 241.525,259.998 242.593,259.693 242.593 C 259.424 242.593,258.114 236.731,258.161 235.741 C 258.187 235.193,259.998 239.511,260.062 240.274 M177.175 265.370 C 178.479 270.418,181.293 276.019,183.990 278.938 C 186.591 281.751,185.173 281.182,182.332 278.272 C 176.504 272.303,173.942 262.508,175.374 251.667 C 175.702 249.190,175.728 249.356,175.967 255.370 C 176.166 260.346,176.419 262.443,177.175 265.370 M87.918 263.889 C 88.831 269.185,89.759 274.685,89.981 276.111 C 90.412 278.873,91.543 294.136,91.333 294.346 C 91.030 294.649,89.106 280.788,87.040 263.415 C 85.462 250.155,85.560 250.208,87.918 263.889 M129.648 273.528 C 130.249 273.839,130.741 274.169,130.741 274.261 C 130.741 274.469,128.831 273.672,128.352 273.263 C 127.783 272.778,128.469 272.918,129.648 273.528 " stroke="none" fill="#fafbfb" fill-rule="evenodd"></path><path id="path1" d="M151.296 0.241 C 54.866 5.813,5.522 54.851,0.345 150.256 C -0.314 162.412,0.098 251.214,0.849 258.581 C 10.091 349.336,58.087 394.654,150.256 399.655 C 162.412 400.314,251.214 399.902,258.581 399.151 C 349.327 389.909,394.655 341.904,399.655 249.744 C 400.314 237.588,399.902 148.786,399.151 141.419 C 389.944 51.015,342.229 5.671,250.741 0.385 C 245.095 0.059,156.664 -0.070,151.296 0.241 M299.630 81.143 C 305.820 82.568,312.750 89.252,313.510 94.529 C 313.697 95.824,315.132 100.423,315.165 99.833 C 315.177 99.625,315.338 99.634,315.560 99.856 C 316.808 101.105,317.432 120.105,316.455 127.113 C 314.485 141.232,306.888 161.351,300.964 168.135 C 299.636 169.655,298.102 171.739,297.555 172.764 C 290.710 185.595,278.761 197.037,272.205 197.037 C 271.137 197.037,271.033 197.175,270.939 198.704 C 270.914 199.111,270.758 200.336,270.592 201.426 C 270.303 203.329,270.449 205.726,272.066 225.609 C 272.385 229.534,273.099 234.847,273.720 237.921 C 274.768 243.105,274.786 243.362,274.166 244.161 C 267.135 253.213,258.860 251.183,256.782 239.896 C 256.474 238.222,255.325 232.269,254.229 226.667 C 251.131 210.829,251.035 210.119,250.901 202.037 C 250.770 194.166,250.540 189.834,250.228 189.329 C 249.758 188.568,249.264 183.909,249.260 180.185 C 249.257 177.944,249.015 174.519,248.721 172.572 C 247.526 164.641,247.646 153.731,248.937 152.933 C 249.309 152.704,249.305 152.049,248.917 149.665 C 248.651 148.025,248.533 146.423,248.655 146.105 C 248.777 145.787,248.889 139.658,248.905 132.486 C 248.936 117.918,249.261 112.925,250.313 110.836 C 250.834 109.801,251.060 108.351,251.195 105.172 C 251.478 98.522,252.994 95.955,256.372 96.408 C 259.599 96.841,264.106 101.133,264.183 103.846 C 264.204 104.583,264.378 105.185,264.571 105.185 C 265.095 105.185,264.522 110.956,263.841 112.541 C 262.745 115.092,263.198 159.418,264.413 168.519 L 264.684 170.556 264.953 167.963 C 266.890 149.300,267.444 146.348,271.839 131.296 C 273.028 127.222,274.103 123.062,274.227 122.052 C 274.350 121.042,274.603 120.064,274.788 119.879 C 274.973 119.694,275.037 119.001,274.929 118.339 C 274.712 117.003,276.575 111.160,279.653 103.519 C 280.638 101.074,282.019 97.562,282.722 95.714 C 287.368 83.499,292.111 79.411,299.630 81.143 M291.886 99.462 C 289.218 102.501,287.180 107.802,282.426 124.074 C 277.557 140.742,273.009 159.836,273.565 161.283 C 273.670 161.557,273.415 165.422,272.998 169.872 C 272.352 176.771,271.488 187.503,271.483 188.694 C 271.482 188.893,272.694 187.851,274.175 186.380 C 276.708 183.864,277.755 183.102,277.217 184.167 C 276.227 186.127,282.434 177.898,284.690 174.259 C 288.562 168.014,290.686 163.672,287.407 168.704 C 285.412 171.766,285.073 171.822,286.839 168.796 C 287.582 167.523,289.151 164.521,290.325 162.125 C 291.499 159.729,292.599 157.895,292.771 158.051 C 292.942 158.206,292.962 158.126,292.816 157.872 C 292.670 157.618,293.298 155.118,294.212 152.316 C 299.765 135.288,301.635 118.991,299.302 107.963 C 297.449 99.205,294.789 96.156,291.886 99.462 M220.289 114.634 C 226.621 116.126,232.586 122.052,232.589 126.852 C 232.593 132.967,227.765 149.670,223.473 158.390 C 221.250 162.908,218.454 165.528,216.406 165.014 C 215.385 164.758,215.391 164.984,216.234 158.889 C 216.446 157.361,216.799 154.474,217.019 152.474 C 217.239 150.474,217.692 148.224,218.025 147.474 L 218.632 146.111 218.865 147.222 C 219.258 149.096,220.500 139.619,220.515 134.630 C 220.535 128.080,219.336 124.089,216.902 122.607 C 216.157 122.153,216.161 122.179,216.967 123.055 C 217.852 124.016,218.909 126.940,218.863 128.300 C 218.845 128.841,218.691 128.678,218.352 127.758 C 216.301 122.191,214.271 121.333,209.064 123.832 C 196.745 129.745,186.842 146.790,187.513 160.926 C 188.045 172.126,193.475 180.208,210.435 195.042 C 214.239 198.369,217.479 201.298,217.635 201.550 C 217.900 201.979,213.181 198.432,207.266 193.757 C 204.047 191.212,204.505 192.054,208.631 196.264 C 210.738 198.414,214.004 201.079,218.043 203.945 C 237.509 217.756,243.482 232.651,236.655 250.354 C 235.800 252.572,235.726 252.957,236.299 252.222 L 237.021 251.296 237.025 252.963 C 237.040 258.249,226.114 271.297,216.481 277.496 C 209.403 282.052,200.945 284.804,193.996 284.813 C 192.253 284.815,192.250 284.816,191.854 286.389 C 188.695 298.912,181.473 306.674,172.990 306.664 C 170.624 306.661,164.334 305.288,159.444 303.708 C 158.222 303.313,156.612 302.895,155.865 302.780 C 155.119 302.665,153.538 302.053,152.353 301.421 C 151.167 300.788,148.538 299.613,146.510 298.809 C 138.493 295.631,131.502 291.447,132.007 290.130 C 132.112 289.855,131.492 289.418,130.443 289.025 C 125.504 287.178,104.024 271.757,103.935 269.995 C 103.905 269.402,103.632 269.035,103.154 268.943 C 102.750 268.865,101.335 267.901,100.009 266.800 C 97.062 264.354,97.083 264.296,98.485 271.019 C 99.112 274.023,99.883 278.648,100.199 281.296 C 101.428 291.623,104.705 310.765,105.914 314.678 C 108.000 321.433,105.119 323.491,98.333 320.091 C 90.957 316.396,88.998 313.045,87.235 301.111 C 85.562 289.778,85.218 287.008,84.619 280.003 C 84.296 276.236,83.620 270.986,83.117 268.336 C 81.973 262.319,81.322 256.797,80.364 245.000 C 79.951 239.907,79.200 230.657,78.696 224.444 C 77.162 205.549,76.673 197.001,76.429 184.815 C 76.301 178.398,76.048 172.960,75.868 172.730 C 73.822 170.125,81.197 166.681,86.476 167.777 C 91.051 168.726,91.729 170.269,90.951 177.963 C 90.710 180.341,90.775 181.328,91.282 182.963 C 91.755 184.490,91.990 187.271,92.221 194.074 C 93.027 217.804,93.378 223.836,94.161 227.407 C 94.709 229.908,94.997 232.927,95.159 237.847 C 95.284 241.654,95.483 244.866,95.603 244.985 C 95.946 245.328,105.959 225.106,107.883 220.185 C 108.838 217.741,111.476 211.074,113.745 205.370 C 123.386 181.130,127.691 163.342,126.295 153.512 C 124.888 143.598,139.122 152.598,141.131 162.892 C 142.038 167.542,141.336 171.108,136.674 185.556 C 135.063 190.546,133.565 195.758,133.346 197.137 C 132.920 199.808,132.360 201.392,130.170 206.111 C 127.345 212.200,123.196 221.834,121.238 226.852 C 117.643 236.063,112.037 245.761,105.610 253.889 C 104.160 255.722,102.976 257.306,102.977 257.407 C 102.983 257.770,112.334 263.890,112.940 263.927 C 113.280 263.949,115.966 265.265,118.908 266.853 C 134.552 275.293,139.057 277.455,147.043 280.356 C 151.443 281.954,156.950 284.052,159.280 285.018 C 164.826 287.315,167.526 288.133,168.243 287.732 C 168.555 287.557,170.703 287.455,173.016 287.504 C 178.469 287.619,180.088 287.150,182.820 284.668 L 184.919 282.760 183.430 281.774 C 171.916 274.155,169.526 252.364,178.360 235.554 C 182.343 227.974,186.614 228.937,186.315 237.348 C 185.276 266.542,193.508 279.555,207.640 271.059 C 221.704 262.604,227.865 238.146,218.492 227.977 C 217.692 227.109,217.037 226.229,217.037 226.021 C 217.037 225.480,203.453 211.875,193.889 202.839 C 184.397 193.870,181.812 191.204,178.930 187.407 C 172.608 179.080,167.461 167.572,169.356 166.000 C 169.714 165.703,169.746 164.849,169.495 162.343 C 168.732 154.730,169.289 151.824,173.230 142.867 C 180.785 125.697,191.499 116.648,207.037 114.314 C 209.642 113.923,218.144 114.128,220.289 114.634 M207.200 123.911 C 205.990 124.637,204.750 125.486,204.444 125.799 C 203.976 126.278,205.320 125.496,209.122 123.077 C 210.759 122.035,209.206 122.710,207.200 123.911 M254.368 207.963 C 254.083 212.001,254.602 218.325,255.570 222.593 C 256.210 225.420,256.267 225.533,256.121 223.704 C 256.032 222.583,255.696 218.167,255.374 213.889 C 254.625 203.921,254.645 204.041,254.368 207.963 M258.674 237.778 C 258.764 238.287,258.952 239.331,259.091 240.097 C 259.230 240.863,259.491 241.581,259.672 241.693 C 260.256 242.054,259.965 239.857,259.227 238.333 C 258.737 237.322,258.561 237.146,258.674 237.778 M175.244 257.266 C 175.109 265.804,177.508 272.856,182.246 277.852 L 184.107 279.815 182.607 277.778 C 178.482 272.174,176.477 265.761,175.428 254.815 C 175.360 254.102,175.277 255.205,175.244 257.266 M87.446 264.081 C 87.400 265.202,90.307 288.174,90.562 288.704 C 90.908 289.420,90.324 280.142,89.793 276.481 C 88.989 270.933,87.490 263.018,87.446 264.081 " stroke="none" fill="#2464ec" fill-rule="evenodd"></path><path id="path2" d="M249.022 121.481 C 249.022 123.417,249.085 124.208,249.161 123.241 C 249.237 122.273,249.237 120.690,249.161 119.722 C 249.085 118.755,249.022 119.546,249.022 121.481 M262.598 123.611 C 262.603 124.405,262.683 124.507,262.963 124.074 C 263.431 123.349,263.431 122.593,262.963 122.593 C 262.759 122.593,262.595 123.051,262.598 123.611 M262.879 135.993 C 262.935 141.966,263.031 147.519,263.092 148.333 C 263.154 149.148,263.216 144.648,263.232 138.333 C 263.247 132.019,263.151 126.466,263.019 125.993 C 262.886 125.521,262.823 130.021,262.879 135.993 M249.010 128.333 C 249.012 129.759,249.079 130.297,249.159 129.529 C 249.239 128.760,249.238 127.594,249.156 126.936 C 249.074 126.279,249.009 126.907,249.010 128.333 M200.071 129.497 L 198.333 131.216 200.000 129.815 C 202.305 127.878,202.407 127.778,202.090 127.778 C 201.935 127.778,201.027 128.551,200.071 129.497 M248.612 147.222 C 248.616 148.037,248.692 148.327,248.780 147.866 C 248.869 147.405,248.866 146.739,248.773 146.385 C 248.680 146.030,248.608 146.407,248.612 147.222 M168.990 157.407 C 168.990 158.324,169.062 158.699,169.150 158.241 C 169.239 157.782,169.239 157.032,169.150 156.574 C 169.062 156.116,168.990 156.491,168.990 157.407 M247.916 160.926 C 247.917 163.167,247.978 164.036,248.052 162.857 C 248.126 161.678,248.125 159.845,248.050 158.783 C 247.976 157.721,247.915 158.685,247.916 160.926 M249.360 183.704 C 249.360 184.620,249.432 184.995,249.521 184.537 C 249.609 184.079,249.609 183.329,249.521 182.870 C 249.432 182.412,249.360 182.787,249.360 183.704 M200.741 186.481 C 201.847 187.602,202.836 188.519,202.938 188.519 C 203.040 188.519,202.218 187.602,201.111 186.481 C 200.005 185.361,199.016 184.444,198.914 184.444 C 198.812 184.444,199.634 185.361,200.741 186.481 M275.944 185.653 L 275.088 186.852 276.136 185.845 C 276.712 185.291,277.097 184.751,276.991 184.645 C 276.886 184.540,276.414 184.993,275.944 185.653 M76.402 187.963 C 76.405 188.981,76.477 189.354,76.562 188.791 C 76.647 188.228,76.645 187.395,76.557 186.939 C 76.469 186.484,76.399 186.944,76.402 187.963 M91.958 189.074 C 91.961 190.093,92.032 190.465,92.118 189.902 C 92.203 189.339,92.200 188.506,92.113 188.050 C 92.025 187.595,91.955 188.056,91.958 189.074 M204.259 191.852 C 204.628 192.259,204.993 192.593,205.070 192.593 C 205.148 192.593,205.033 192.259,204.815 191.852 C 204.597 191.444,204.232 191.111,204.004 191.111 C 203.776 191.111,203.891 191.444,204.259 191.852 M184.444 193.889 C 185.551 195.009,186.540 195.926,186.641 195.926 C 186.743 195.926,185.921 195.009,184.815 193.889 C 183.708 192.769,182.720 191.852,182.618 191.852 C 182.516 191.852,183.338 192.769,184.444 193.889 M207.407 195.301 C 207.407 195.365,207.949 195.906,208.611 196.505 L 209.815 197.593 208.727 196.389 C 207.713 195.267,207.407 195.015,207.407 195.301 M254.180 207.963 C 254.183 208.981,254.255 209.354,254.340 208.791 C 254.425 208.228,254.423 207.395,254.335 206.939 C 254.247 206.484,254.177 206.944,254.180 207.963 M198.889 207.523 C 198.889 207.587,199.431 208.129,200.093 208.727 L 201.296 209.815 200.208 208.611 C 199.194 207.489,198.889 207.237,198.889 207.523 M207.222 215.926 C 208.637 217.352,209.878 218.519,209.980 218.519 C 210.082 218.519,209.008 217.352,207.593 215.926 C 206.178 214.500,204.937 213.333,204.835 213.333 C 204.733 213.333,205.807 214.500,207.222 215.926 M271.197 215.926 C 271.197 216.639,271.273 216.931,271.366 216.574 C 271.460 216.218,271.460 215.634,271.366 215.278 C 271.273 214.921,271.197 215.213,271.197 215.926 M93.082 217.778 C 93.082 219.102,93.149 219.644,93.231 218.981 C 93.313 218.319,93.313 217.236,93.231 216.574 C 93.149 215.912,93.082 216.454,93.082 217.778 M272.014 246.389 L 270.926 247.593 272.130 246.505 C 272.792 245.906,273.333 245.365,273.333 245.301 C 273.333 245.015,273.028 245.267,272.014 246.389 M226.276 269.167 L 225.000 270.556 226.389 269.279 C 227.682 268.091,227.948 267.778,227.665 267.778 C 227.603 267.778,226.978 268.403,226.276 269.167 M169.537 287.675 C 170.199 287.757,171.282 287.757,171.944 287.675 C 172.606 287.593,172.065 287.526,170.741 287.526 C 169.417 287.526,168.875 287.593,169.537 287.675 M90.376 289.167 C 90.393 289.979,91.100 290.517,91.105 289.722 C 91.109 289.264,90.944 288.889,90.741 288.889 C 90.537 288.889,90.373 289.014,90.376 289.167 " stroke="none" fill="#6592f4" fill-rule="evenodd"></path><path id="path3" d="M209.907 114.335 C 210.366 114.424,211.116 114.424,211.574 114.335 C 212.032 114.247,211.657 114.175,210.741 114.175 C 209.824 114.175,209.449 114.247,209.907 114.335 M214.907 114.329 C 215.264 114.423,215.847 114.423,216.204 114.329 C 216.560 114.236,216.269 114.160,215.556 114.160 C 214.843 114.160,214.551 114.236,214.907 114.329 M262.593 121.481 C 262.593 122.093,262.730 122.593,262.899 122.593 C 263.067 122.593,263.132 122.093,263.042 121.481 C 262.952 120.870,262.814 120.370,262.736 120.370 C 262.657 120.370,262.593 120.870,262.593 121.481 M208.426 123.545 C 207.041 124.296,207.126 124.609,208.519 123.889 C 209.130 123.573,209.630 123.235,209.630 123.139 C 209.630 122.900,209.590 122.914,208.426 123.545 M263.064 125.185 C 263.064 126.102,263.136 126.477,263.224 126.019 C 263.313 125.560,263.313 124.810,263.224 124.352 C 263.136 123.894,263.064 124.269,263.064 125.185 M204.198 125.827 C 204.488 126.297,203.503 127.185,203.021 126.888 C 202.832 126.771,202.476 126.916,202.231 127.211 C 201.861 127.658,201.928 127.721,202.635 127.584 C 203.833 127.354,205.036 126.106,204.425 125.728 C 204.141 125.553,204.053 125.592,204.198 125.827 M232.316 126.852 C 232.320 127.667,232.396 127.956,232.484 127.496 C 232.573 127.035,232.569 126.368,232.477 126.014 C 232.384 125.660,232.312 126.037,232.316 126.852 M262.493 129.259 C 262.347 130.380,262.249 132.046,262.275 132.963 C 262.308 134.170,262.410 133.812,262.644 131.667 C 263.017 128.251,262.888 126.208,262.493 129.259 M200.000 129.815 C 199.522 130.324,199.297 130.741,199.501 130.741 C 199.704 130.741,200.262 130.324,200.741 129.815 C 201.219 129.306,201.444 128.889,201.240 128.889 C 201.037 128.889,200.478 129.306,200.000 129.815 M197.044 132.712 C 196.340 133.563,196.008 134.065,196.307 133.828 C 196.607 133.590,196.977 133.382,197.130 133.365 C 197.282 133.348,197.366 133.267,197.315 133.187 C 197.264 133.107,197.541 132.689,197.930 132.259 C 198.319 131.829,198.567 131.407,198.482 131.321 C 198.396 131.236,197.749 131.862,197.044 132.712 M249.004 133.148 C 249.006 134.370,249.075 134.826,249.157 134.160 C 249.240 133.494,249.238 132.494,249.154 131.938 C 249.069 131.381,249.002 131.926,249.004 133.148 M296.514 145.686 C 296.676 146.111,296.579 146.495,296.258 146.698 C 295.871 146.943,295.860 147.027,296.215 147.031 C 296.892 147.039,297.217 145.957,296.694 145.438 C 296.353 145.100,296.312 145.156,296.514 145.686 M263.078 151.667 C 263.080 152.889,263.149 153.344,263.231 152.679 C 263.314 152.013,263.312 151.013,263.228 150.456 C 263.143 149.900,263.076 150.444,263.078 151.667 M187.156 159.630 C 187.156 160.954,187.223 161.495,187.305 160.833 C 187.387 160.171,187.387 159.088,187.305 158.426 C 187.223 157.764,187.156 158.306,187.156 159.630 M169.731 161.852 C 169.731 162.769,169.803 163.144,169.891 162.685 C 169.979 162.227,169.979 161.477,169.891 161.019 C 169.803 160.560,169.731 160.935,169.731 161.852 M141.205 166.111 C 141.209 166.926,141.284 167.216,141.373 166.755 C 141.462 166.294,141.458 165.628,141.366 165.273 C 141.273 164.919,141.200 165.296,141.205 166.111 M249.374 179.815 C 249.376 181.037,249.445 181.492,249.528 180.827 C 249.610 180.161,249.608 179.161,249.524 178.604 C 249.439 178.048,249.372 178.593,249.374 179.815 M274.795 185.833 C 273.677 187.048,273.660 187.094,274.655 186.198 C 275.281 185.635,275.878 185.260,275.982 185.365 C 276.087 185.470,276.173 185.306,276.173 185.000 C 276.173 184.286,276.272 184.227,274.795 185.833 M91.938 195.556 C 91.938 196.269,92.014 196.560,92.107 196.204 C 92.200 195.847,92.200 195.264,92.107 194.907 C 92.014 194.551,91.938 194.843,91.938 195.556 M250.872 202.037 C 250.871 203.870,250.934 204.667,251.011 203.807 C 251.089 202.948,251.090 201.448,251.013 200.474 C 250.937 199.500,250.873 200.204,250.872 202.037 M254.160 203.333 C 254.161 205.996,254.205 206.224,254.444 204.813 C 254.600 203.895,254.600 202.478,254.443 201.664 C 254.218 200.490,254.159 200.835,254.160 203.333 M195.926 204.560 C 195.926 204.624,196.468 205.166,197.130 205.764 L 198.333 206.852 197.246 205.648 C 196.232 204.526,195.926 204.274,195.926 204.560 M227.778 212.037 C 228.469 212.750,229.118 213.333,229.219 213.333 C 229.321 213.333,228.839 212.750,228.148 212.037 C 227.457 211.324,226.808 210.741,226.707 210.741 C 226.605 210.741,227.087 211.324,227.778 212.037 M238.975 235.556 C 238.975 236.269,239.051 236.560,239.144 236.204 C 239.237 235.847,239.237 235.264,239.144 234.907 C 239.051 234.551,238.975 234.843,238.975 235.556 M94.944 237.778 C 94.944 239.509,95.008 240.218,95.086 239.352 C 95.164 238.486,95.164 237.069,95.086 236.204 C 95.008 235.338,94.944 236.046,94.944 237.778 M238.975 238.148 C 238.975 238.861,239.051 239.153,239.144 238.796 C 239.237 238.440,239.237 237.856,239.144 237.500 C 239.051 237.144,238.975 237.435,238.975 238.148 M185.680 245.926 C 185.680 247.454,185.745 248.079,185.825 247.315 C 185.905 246.551,185.905 245.301,185.825 244.537 C 185.745 243.773,185.680 244.398,185.680 245.926 M175.466 253.796 C 175.672 257.117,175.863 257.281,175.897 254.167 C 175.913 252.690,175.790 251.481,175.625 251.481 C 175.459 251.481,175.388 252.523,175.466 253.796 M85.926 254.608 C 85.926 255.105,86.062 255.596,86.229 255.699 C 86.396 255.802,86.461 255.396,86.372 254.795 C 86.178 253.472,85.926 253.366,85.926 254.608 M174.926 257.778 C 174.926 258.898,174.995 259.356,175.080 258.796 C 175.165 258.236,175.165 257.319,175.080 256.759 C 174.995 256.199,174.926 256.657,174.926 257.778 M182.371 278.419 C 182.963 279.070,183.576 279.523,183.735 279.425 C 183.894 279.327,184.285 279.620,184.604 280.076 C 184.924 280.532,185.185 280.733,185.185 280.522 C 185.185 280.311,184.685 279.660,184.074 279.074 C 183.463 278.489,182.963 278.150,182.963 278.321 C 182.963 278.493,182.588 278.318,182.130 277.934 C 181.655 277.535,181.759 277.744,182.371 278.419 M91.032 293.333 C 91.122 293.944,91.260 294.444,91.338 294.444 C 91.417 294.444,91.481 293.944,91.481 293.333 C 91.481 292.722,91.344 292.222,91.175 292.222 C 91.007 292.222,90.942 292.722,91.032 293.333 " stroke="none" fill="#94b4f4" fill-rule="evenodd"></path><path id="path4" d="M91.963 192.593 C 91.963 193.713,92.032 194.171,92.117 193.611 C 92.202 193.051,92.202 192.134,92.117 191.574 C 92.032 191.014,91.963 191.472,91.963 192.593 " stroke="none" fill="#88acf4" fill-rule="evenodd"></path></g></svg>